#!OML:ASF H:\Terrain\Patient Classification 1\Walking\liu\liu.ASF
:FULLY-SPECIFIED
:DEGREES
175
root 9.25035 17.0325 7.43612 8.38168 -0.131142 1.25645
lowerback -3.85513 -0.463534 -4.29433
upperback -0.316072 -0.467797 1.76487
thorax 1.88686 -0.27516 4.21043
lowerneck -21.879 -4.36183 -11.3031
upperneck 21.803 -5.5159 12.1726
head 11.3935 -1.9551 5.52553
rclavicle -1.10325e-014 1.19271e-015
rhumerus -38.211 17.4231 -90.8019
rradius 36.8229
rwrist -16.1831
rhand -33.1679 -23.3315
rfingers 7.12502
rthumb -6.37629 -53.2155
lclavicle -1.10325e-014 1.19271e-015
lhumerus -29.7784 -4.52262 89.5354
lradius 18.8115
lwrist -5.61019
lhand -16.2406 -25.9506
lfingers 7.12502
lthumb 9.96806 3.79338
rfemur -29.4147 -5.70636 21.9598
rtibia 65.1433
rfoot -15.6975 -7.17728
rtoes -17.8095
lfemur -20.5742 -0.475891 -25.6073
ltibia 30.4168
lfoot -17.4644 3.88792
ltoes -0.967498
176
root 9.25567 17.0296 7.65687 8.23573 0.160035 1.37814
lowerback -3.74576 -0.672716 -4.35443
upperback -0.232519 -0.74816 1.77125
thorax 1.94209 -0.418995 4.23577
lowerneck -21.9958 -4.27161 -11.2182
upperneck 21.8781 -5.39362 12.1074
head 11.4217 -1.897 5.5097
rclavicle -6.80837e-015 4.37326e-015
rhumerus -39.1177 17.3515 -90.7463
rradius 37.277
rwrist -17.2415
rhand -32.1905 -25.0773
rfingers 7.12502
rthumb -5.43266 -54.9877
lclavicle -6.80837e-015 4.37326e-015
lhumerus -28.9511 -7.79013 90.8626
lradius 20.5057
lwrist -2.40177
lhand -16.3383 -24.8486
lfingers 7.12502
lthumb 9.87374 4.89985
rfemur -30.5461 -5.5474 22.0208
rtibia 63.7993
rfoot -16.1637 -7.54295
rtoes -19.9752
lfemur -19.3054 -0.938894 -25.709
ltibia 30.0141
lfoot -18.2579 3.95787
ltoes -0.580892
177
root 9.26579 17.0218 7.8823 8.03668 0.547769 1.42016
lowerback -3.52041 -0.924597 -4.36016
upperback -0.278284 -1.09554 1.86843
thorax 1.80732 -0.588919 4.3234
lowerneck -21.6868 -4.10846 -11.2491
upperneck 21.9025 -5.14378 11.9567
head 11.331 -1.8142 5.49749
rclavicle 5.91384e-015 1.98785e-014
rhumerus -40.2447 17.3847 -90.68
rradius 37.5072
rwrist -18.4203
rhand -31.273 -26.201
rfingers 7.12502
rthumb -4.54673 -56.1322
lclavicle 5.91384e-015 1.98785e-014
lhumerus -28.4327 -10.5168 92.006
lradius 22.0623
lwrist 0.486549
lhand -16.5758 -24.4431
lfingers 7.12502
lthumb 9.64464 5.31609
rfemur -31.5486 -5.5086 22.0869
rtibia 62.3102
rfoot -16.7579 -7.73884
rtoes -19.408
lfemur -17.8727 -1.31398 -25.7877
ltibia 29.4543
lfoot -18.782 4.19565
ltoes -1.13117
178
root 9.27704 17.0146 8.10836 7.87122 0.96191 1.73302
lowerback -3.30944 -1.19776 -4.56926
upperback -0.307229 -1.46066 1.83943
thorax 1.70298 -0.769812 4.39561
lowerneck -21.2094 -3.86885 -11.1685
upperneck 21.7467 -4.81172 11.752
head 11.1252 -1.69485 5.44933
rclavicle 1.41634e-014 -4.77083e-015
rhumerus -41.3393 17.4689 -90.7298
rradius 37.3211
rwrist -18.7539
rhand -31.8517 -24.5129
rfingers 7.12502
rthumb -5.10554 -54.4313
lclavicle 1.41634e-014 -4.77083e-015
lhumerus -27.48 -12.0139 92.1319
lradius 23.6424
lwrist 0.00758704
lhand -15.314 -23.8194
lfingers 7.12502
lthumb 10.8619 5.87966
rfemur -32.5858 -5.62335 21.7599
rtibia 60.7143
rfoot -17.465 -7.67488
rtoes -19.0401
lfemur -16.3841 -1.79649 -26.1983
ltibia 28.7501
lfoot -19.1404 4.57873
ltoes -1.85754
179
root 9.28776 17.0108 8.33306 7.68794 1.17842 1.97666
lowerback -3.20894 -1.36524 -4.68419
upperback -0.152946 -1.68172 1.78269
thorax 1.83195 -0.887738 4.39008
lowerneck -21.1877 -3.73745 -11.322
upperneck 21.7224 -4.63075 11.9669
head 11.0968 -1.60071 5.58683
rclavicle 1.78906e-014 -7.95139e-015
rhumerus -42.0591 17.3798 -90.6113
rradius 37.3132
rwrist -18.9737
rhand -32.4938 -26.1244
rfingers 7.12502
rthumb -5.72552 -56.027
lclavicle 1.78906e-014 -7.95139e-015
lhumerus -26.663 -15.0995 92.7216
lradius 25.6642
lwrist 3.21953
lhand -15.6699 -24.1704
lfingers 7.12502
lthumb 10.5186 5.54642
rfemur -33.5567 -5.55964 21.5166
rtibia 58.953
rfoot -18.1147 -7.50669
rtoes -19.1606
lfemur -14.8497 -2.37502 -26.5201
ltibia 27.9632
lfoot -19.4619 4.80928
ltoes 0.347271
180
root 9.29422 17.0115 8.55047 7.59592 1.25107 1.96292
lowerback -3.1084 -1.43976 -4.5792
upperback -0.0771028 -1.78847 1.77673
thorax 1.86224 -0.942594 4.31997
lowerneck -21.2762 -3.71913 -11.5274
upperneck 21.8429 -4.62443 12.295
head 11.1724 -1.57422 5.75675
rclavicle 6.90777e-015 -1.43125e-014
rhumerus -42.7839 16.8647 -90.3143
rradius 37.3412
rwrist -19.0137
rhand -32.7352 -28.3062
rfingers 7.12502
rthumb -5.95855 -58.2024
lclavicle 6.90777e-015 -1.43125e-014
lhumerus -25.9873 -17.901 93.1063
lradius 27.6863
lwrist 6.18179
lhand -15.9067 -24.249
lfingers 7.12502
lthumb 10.2902 5.4793
rfemur -34.5889 -5.08905 21.5328
rtibia 56.9782
rfoot -18.6623 -7.48534
rtoes -18.3679
lfemur -13.4722 -2.67315 -26.5399
ltibia 27.1539
lfoot -19.7313 4.76105
ltoes 2.80498
181
root 9.30091 17.0124 8.76533 7.62676 1.39964 1.75696
lowerback -2.96567 -1.5586 -4.25807
upperback -0.201087 -1.96605 1.82333
thorax 1.66432 -1.02152 4.18269
lowerneck -20.8289 -3.58584 -11.5724
upperneck 21.673 -4.49186 12.4366
head 11.0088 -1.51371 5.82909
rclavicle -1.64494e-014 5.1684e-015
rhumerus -43.8484 16.1867 -90.0349
rradius 37.4282
rwrist -18.7695
rhand -31.5649 -29.1606
rfingers 7.12502
rthumb -4.82861 -59.0856
lclavicle -1.64494e-014 5.1684e-015
lhumerus -25.3112 -19.7908 93.1448
lradius 29.2463
lwrist 7.24774
lhand -16.2698 -24.4405
lfingers 7.12502
lthumb 9.93987 5.30479
rfemur -35.527 -4.40924 21.6057
rtibia 54.7841
rfoot -19.3714 -7.28291
rtoes -17.205
lfemur -12.2049 -2.92821 -26.3144
ltibia 26.2367
lfoot -20.1539 4.5789
ltoes 4.50806
